# xmcd CD database file
# Copyright (C) 1996 Ti Kan
#
# Track frame offsets:
#  150
#  15387
#  30390
#  44057
#  58337
#  73585
#  89710
#  102957
#  117030
#  130062
#  143262
#  161000
#  177755
#  192282
#
# Disc length: 2811 seconds
#
# Revision: 1
# Processed by: cddbd v1.4b41PL1 Copyright (c) Steve Scherf et al.
# Submitted via: CDWizzard Release:4.12
#
DISCID=ba0af90e
DTITLE=Carr, Leroy and Scrapper Blackwell - Leroy Carr and Scrapper Black
DTITLE=well (1930 - 1958) Remaining Titles 
DYEAR=1900
DGENRE=
TTITLE0=Hard Times Done Drove Me To Drink
TTITLE1=Jail Cell Blues
TTITLE2=Nineteen Thirty One Blues
TTITLE3=Big House Blues
TTITLE4=The Depression Blues
TTITLE5=Mean Mistreater Mama No. 2
TTITLE6=Hard Hearted Papa
TTITLE7=You Left Me Crying
TTITLE8=Black Wagon Blues
TTITLE9=Arlena
TTITLE10=Little Girl Blues
TTITLE11=Life Of A Millionaire
TTITLE12=Little Boy Blue
TTITLE13=Blues
EXTD=CD 3538-2\n\nLeroy Carr:  Tracks 1 -10\nScrapper Blackwell:  Tracks 
EXTD=11 - 14\n\n[Submitted 5/30/97 - J. Rockwall McCoy\nJmccoy@efn.org]
EXTT0=
EXTT1=
EXTT2=
EXTT3=
EXTT4=
EXTT5=
EXTT6=
EXTT7=
EXTT8=
EXTT9=
EXTT10=
EXTT11=
EXTT12=
EXTT13=
PLAYORDER=
